<?xml version="1.0" standalone="no"?><!DOCTYPE svg PUBLIC "-//W3C//DTD SVG 1.1//EN" "http://www.w3.org/Graphics/SVG/1.1/DTD/svg11.dtd"><svg t="1621036817810" class="icon" viewBox="0 0 1026 1024" version="1.1" xmlns="http://www.w3.org/2000/svg" p-id="1476" width="180.3515625" height="180" xmlns:xlink="http://www.w3.org/1999/xlink"><defs><style type="text/css">@font-face { font-weight: 400; font-style: normal; font-family: Circular-Loom; src: url("https://cdn.loom.com/assets/fonts/circular/CircularXXWeb-Book-cd7d2bcec649b1243839a15d5eb8f0a3.woff2") format("woff2"); }
@font-face { font-weight: 500; font-style: normal; font-family: Circular-Loom; src: url("https://cdn.loom.com/assets/fonts/circular/CircularXXWeb-Medium-d74eac43c78bd5852478998ce63dceb3.woff2") format("woff2"); }
@font-face { font-weight: 700; font-style: normal; font-family: Circular-Loom; src: url("https://cdn.loom.com/assets/fonts/circular/CircularXXWeb-Bold-83b8ceaf77f49c7cffa44107561909e4.woff2") format("woff2"); }
@font-face { font-weight: 900; font-style: normal; font-family: Circular-Loom; src: url("https://cdn.loom.com/assets/fonts/circular/CircularXXWeb-Black-bf067ecb8aa777ceb6df7d72226febca.woff2") format("woff2"); }
</style></defs><path d="M673.970814 671.184764a1055.153104 1055.153104 0 0 1-305.958942-274.679199l16.083107-12.03067A1038.436804 1038.436804 0 0 0 683.848627 654.215187z" fill="#CCCCCC" p-id="1477"></path><path d="M284.303735 478.314123a41.790749 41.790749 0 0 1-10.384368-1.393025 39.257977 39.257977 0 0 1-28.113777-27.987138l-50.655454-189.957952a39.637893 39.637893 0 0 1 48.629236-48.629236l189.957952 50.655454a39.764531 39.764531 0 0 1 17.729409 66.358645l-139.302499 139.302498a39.131338 39.131338 0 0 1-27.860499 11.650754z m-50.655454-249.351472a19.755627 19.755627 0 0 0-18.742518 25.327727l50.655454 189.957952a19.50235 19.50235 0 0 0 32.672768 8.738066l139.302498-139.302498a19.50235 19.50235 0 0 0-8.864705-32.672768l-189.957952-50.655454a19.122434 19.122434 0 0 0-5.5721-1.393025zM394.352708 618.756369h-20.135543A216.425427 216.425427 0 0 1 595.201583 406.130101v20.135543a196.163245 196.163245 0 0 0-199.835766 192.490725zM482.619837 638.765273L463.244126 633.193173a215.285679 215.285679 0 0 1 143.101657-148.800395l6.078654 19.122433a195.530052 195.530052 0 0 0-129.8046 135.250062zM572.659906 654.468464l-18.615879-7.851595A162.224091 162.224091 0 0 1 633.193173 563.162008l9.244621 17.856048a142.721741 142.721741 0 0 0-69.777888 73.450408zM702.211229 815.046253a27.987138 27.987138 0 0 1-21.528568-10.004452 120.813257 120.813257 0 0 1 133.60376-191.224339 28.493693 28.493693 0 0 1 18.362602 21.781845 27.987138 27.987138 0 0 1-9.624536 26.594114l-48.122681 40.77764a62.17957 62.17957 0 0 0-17.096216 23.554786L728.552065 797.823398a28.620331 28.620331 0 0 1-21.908484 17.349493z m71.170913-188.31165A101.310908 101.310908 0 0 0 696.512491 792.12466a8.35815 8.35815 0 0 0 7.345041 2.78605 8.231511 8.231511 0 0 0 6.45857-5.065546l29.253525-71.044274a81.808558 81.808558 0 0 1 22.794954-31.153104l48.122681-40.77764a8.231511 8.231511 0 0 0 2.912689-7.724957 8.864704 8.864704 0 0 0-5.445462-6.45857 102.703933 102.703933 0 0 0-34.572347-5.952016z" fill="#CCCCCC" p-id="1478"></path><path d="M309.251546 355.22137a34.445709 34.445709 0 1 1 34.445709-34.445708 34.445709 34.445709 0 0 1-34.445709 34.445708z m0-48.755874a14.310166 14.310166 0 1 0 14.436804 14.310166 14.310166 14.310166 0 0 0-14.436804-14.310166z" fill="#CCCCCC" p-id="1479"></path></svg>